<svg xmlns="http://www.w3.org/2000/svg" viewBox="0 0 900 520" role="img" aria-labelledby="title desc">
  <title id="title">AI-style system overview illustration</title>
  <desc id="desc">An original AI analytics dashboard with glowing charts, data cards, and automated system status signals.</desc>
  <defs>
    <linearGradient id="bg" x1="0" y1="0" x2="1" y2="1">
      <stop offset="0" stop-color="#f3fbf9"/>
      <stop offset="0.5" stop-color="#dfefeb"/>
      <stop offset="1" stop-color="#f8dfe3"/>
    </linearGradient>
    <filter id="shadow" x="-25%" y="-25%" width="150%" height="150%">
      <feDropShadow dx="0" dy="20" stdDeviation="22" flood-color="#610016" flood-opacity="0.22"/>
    </filter>
  </defs>
  <rect width="900" height="520" fill="#ffffff"/>
  <g opacity="0.27" stroke="#8a0303" stroke-width="3" fill="none">
    <path d="M74 164h140l56 58h112M506 84h134l72 76h112M110 418h126l78-76h154M620 426h92l64-62h74"/>
    <circle cx="214" cy="164" r="8" fill="#8a0303"/><circle cx="382" cy="222" r="8" fill="#8a0303"/><circle cx="640" cy="84" r="8" fill="#8a0303"/>
  </g>
  <g filter="url(#shadow)">
    <rect x="112" y="92" width="676" height="338" rx="36" fill="#ffffff" fill-opacity="0.78" stroke="#ffffff" stroke-width="2"/>
    <rect x="152" y="134" width="182" height="96" rx="22" fill="#fff5f5"/>
    <rect x="360" y="134" width="182" height="96" rx="22" fill="#ffffff"/>
    <rect x="568" y="134" width="182" height="96" rx="22" fill="#fff5f5"/>
    <circle cx="451" cy="182" r="48" fill="#8a0303"/>
    <path d="M451 145c0-18 26-42 26-42s26 24 26 42a26 26 0 0 1-52 0z" transform="translate(-26 31)" fill="#ffffff" opacity="0.9"/>
    <path d="M194 204v-44M232 204v-64M270 204v-30" stroke="#8a0303" stroke-width="18" stroke-linecap="round"/>
    <circle cx="660" cy="182" r="36" fill="#8a0303"/>
    <path d="M644 182h32M660 166v32" stroke="#ffffff" stroke-width="10" stroke-linecap="round"/>
    <rect x="152" y="270" width="598" height="102" rx="24" fill="#ffffff"/>
    <path d="M192 330l82-40 82 34 86-62 92 44 122-78" fill="none" stroke="#8a0303" stroke-width="15" stroke-linecap="round" stroke-linejoin="round"/>
    <g fill="#8a0303">
      <circle cx="192" cy="330" r="10"/><circle cx="274" cy="290" r="10"/><circle cx="356" cy="324" r="10"/><circle cx="442" cy="262" r="10"/><circle cx="534" cy="306" r="10"/><circle cx="656" cy="228" r="10"/>
    </g>
  </g>
  <rect x="370" y="382" width="160" height="58" rx="22" fill="#8a0303"/>
  <path d="M408 412h82M408 398h54M408 426h38" stroke="#ffffff" stroke-width="8" stroke-linecap="round"/>
</svg>
